<?xml version="1.0" encoding="UTF-8"?>
<svg xmlns="http://www.w3.org/2000/svg" xmlns:xlink="http://www.w3.org/1999/xlink" viewBox="0 0 250 250" width="250px" height="250px">
<g id="surface104318561">
<path style=" stroke:none;fill-rule:nonzero;fill:rgb(100%,100%,100%);fill-opacity:1;" d="M 70 20 C 42.441406 20 20 42.441406 20 70 L 20 180 C 20 207.558594 42.441406 230 70 230 L 180 230 C 207.558594 230 230 207.558594 230 180 L 230 70 C 230 42.441406 207.558594 20 180 20 Z M 70 30 L 180 30 C 202.152344 30 220 47.847656 220 70 L 220 180 C 220 202.152344 202.152344 220 180 220 L 70 220 C 47.847656 220 30 202.152344 30 180 L 30 70 C 30 47.847656 47.847656 30 70 30 Z M 65 75 C 56.773438 75 50 81.773438 50 90 L 50 160 C 50 168.226562 56.773438 175 65 175 L 185 175 C 193.226562 175 200 168.226562 200 160 L 200 90 C 200 81.773438 193.226562 75 185 75 Z M 67.070312 85 L 182.917969 85 L 138.386719 129.464844 C 130.925781 136.914062 118.984375 136.914062 111.523438 129.453125 Z M 190 92.0625 L 190 157.9375 L 157.011719 125 Z M 60 92.070312 L 92.929688 125 L 60 157.929688 Z M 149.941406 132.0625 L 182.929688 165 L 67.070312 165 L 100 132.070312 L 104.453125 136.523438 C 115.730469 147.800781 134.164062 147.8125 145.449219 136.542969 Z M 149.941406 132.0625 "/>
</g>
</svg>
