<svg xmlns="http://www.w3.org/2000/svg" xmlns:xlink="http://www.w3.org/1999/xlink" viewBox="0 0 1040.39 937" style=""><defs><style>.cls-1,.cls-2,.cls-3{fill:none;stroke:#fff;stroke-miterlimit:10;}.cls-1{stroke-width:25px;}.cls-2{stroke-width:15px;}.cls-3{stroke-width:10px;}.cls-4{fill:#fff;}.cls-5{fill:url(#radial-gradient);}</style><radialGradient id="radial-gradient" cx="573.89" cy="469.5" r="19" gradientUnits="userSpaceOnUse"><stop offset="0" stop-color="#0a911a"></stop><stop offset="1" stop-color="#fff"></stop></radialGradient></defs><title>Asset 14</title><g id="Layer_2" data-name="Layer 2"><g id="R"><path class="cls-1 OVNGaTlV_0" d="M852.7,827.81A454.05,454.05,0,0,1,571.89,924.5c-232,0-423.5-173.23-452.27-397.39M921.46,761.33A454.17,454.17,0,0,0,1027.89,468.5c0-251.84-204.16-456-456-456-231.15,0-422.12,172-451.95,395"></path><path class="cls-2 OVNGaTlV_1" d="M218.31,378C258.75,220.17,402,103.5,572.39,103.5c201.86,0,365.5,163.64,365.5,365.5S774.25,834.5,572.39,834.5c-170.3,0-313.4-116.47-354-274.11"></path><path class="cls-3 OVNGaTlV_2" d="M448.6,707A268,268,0,0,1,304.89,469.5c0-125.44,86.18-230.75,202.57-259.95m40.07,526.77q12.53,1.17,25.36,1.18c148,0,268-120,268-268s-120-268-268-268a272.6,272.6,0,0,0-27.4,1.38"></path><path class="cls-4 OVNGaTlV_3" d="M27.39,447.5H50.88c3,0,3,1,3,5s0,5-3,5H36c-4.12,0-5.24,0-5.24,5,0,7.49.16,15,.16,22,0,4-1,5.14-3.93,5.14-3.11,0-4.22-1.14-4.22-5.14,0-7.33.17-15,.17-22,0-5-1.06-5-5.54-5H2.89c-3,0-2.89-1-2.89-5s-.11-5,2.9-5Z"></path><path class="cls-4 OVNGaTlV_4" d="M89.82,467.54c0-6-.09-11.06-.09-17,0-2,.16-3,4.16-3s4,1,4,2v7c0,5.14,0,6.1,4.37,6.1,9.81-.3,20.63,0,30.46,0,3.17,0,3.17-1.06,3.17-6.06v-7c0-1,.11-2,4-2s4.24.77,4.24,3c0,11.77,0,25.31,0,36,0,2.31-.26,3-3.8,3-4.46,0-4.46-1-4.46-5v-8c0-2.51-.08-4.07-3.17-4.07-10.65.17-19.81.15-30.46,0-4.37,0-4.37,1.06-4.37,4.06v8c0,4,0,5-4,5s-4-1-4-3C89.85,480.19,89.82,473.87,89.82,467.54Z"></path><path class="cls-4 OVNGaTlV_5" d="M200.7,490.5c-7.83,0-15.81.05-23.49.05-2.52,0-3.42-.52-3.38-3.25.15-11.82,0-23.65,0-35.48,0-2.32,0-3.38,3.25-3.38l47.48,0c3.32.08,3.32,2.45,3.32,5.08s0,5.12-3.56,5.12c-12.44,0-25.44-.09-38.48-.09-2,0-4,0-4,2.5s2.45,2.42,4.1,2.43c12.83.08,26-.07,38.48-.07,3.51,0,3.55,1.11,3.55,5s0,5.17-3.42,5.17c-12.62,0-25.65-.12-38.48-.08-2.14,0-4.28,0-4.28,2.83,0,3.15,2.14,3.15,4.48,3.15,12.66,0,25.66-.08,38-.08,3.68,0,3.84,1.08,3.84,5.85,0,4.23-.16,5.23-7.36,5.23Z"></path><path class="cls-4 OVNGaTlV_6" d="M392,478.48c0-3-1.12-4-8-4-8.82,0-12.64.22-21.45-.06-3.35-.1-3.65,1.1-3.65,4s.09,5.11.09,9c0,3-.41,4.26-3.91,4.28-3.69,0-4.21-1.15-4.21-4.51,0-5.64.08-11.64.08-17.46,0-6,.14-12-.07-18-.09-2.7.82-3.29,3.36-3.27,15,.11,29.94.14,44.9,0,3.55,0,5.55,1.38,5.69,4.71.23,5.47,0,11,0,16.44,0,2.91-4,2.68-4,6.91,0,5.77,3,10,3,13.87,0,.13,0,1.28-1.85,1.28C397.89,491.65,392,482.5,392,478.48Zm1.22-14c1.92,0,3.78,0,3.78-2.63,0-2.25-1.76-2.4-3.57-2.4-10.47,0-20.47,0-31.4,0-1.7,0-3-.23-3,2.4s1.48,2.63,3.32,2.62c5.15,0,10.3,0,15.45,0S388.08,464.48,393.23,464.51Z"></path><path class="cls-4 OVNGaTlV_7" d="M481.68,452.19c-1.89-3.43-2.68-4.74-6.79-4.69s-5.63,2.71-6.94,5c-1.58,2.73-2.91,5.23-4.35,8-4.78,9.34-9.56,19.05-14.33,28.36a.74.74,0,0,0,.71,1.05c14.91,0,20.08-19.84,23.94-28a.72.72,0,0,1,1.25-.08s7.72,28.12,22.95,28.12c.4,0,.77-.69.59-1.05"></path><path class="cls-4 OVNGaTlV_8" d="M549.39,469.5A24.5,24.5 0,1,1 598.39,469.5A24.5,24.5 0,1,1 549.39,469.5"></path><path class="cls-3 OVNGaTlV_9" d="M573.89,468.5L794.89,62.5"></path><path class="cls-5 OVNGaTlV_10" d="M554.89,469.5A19,19 0,1,1 592.89,469.5A19,19 0,1,1 554.89,469.5"></path><path class="cls-4 OVNGaTlV_11" d="M677.68,452.19c-1.89-3.43-2.68-4.74-6.79-4.69s-5.63,2.71-6.94,5c-1.58,2.73-2.91,5.23-4.35,8-4.78,9.34-9.56,19.05-14.33,28.36a.74.74,0,0,0,.71,1.05c14.91,0,20.08-19.84,23.94-28a.72.72,0,0,1,1.25-.08s7.72,28.12,23,28.12c.4,0,.77-.69.59-1.05"></path><path class="cls-4 OVNGaTlV_12" d="M782,478.48c0-3-1.12-4-8-4-8.82,0-12.64.22-21.45-.06-3.35-.1-3.65,1.1-3.65,4s.09,5.11.09,9c0,3-.41,4.26-3.91,4.28-3.69,0-4.21-1.15-4.21-4.51,0-5.64.08-11.64.08-17.46,0-6,.14-12-.07-18-.09-2.7.82-3.29,3.36-3.27,15,.11,29.94.14,44.9,0,3.55,0,5.55,1.38,5.69,4.71.23,5.47,0,11,0,16.44,0,2.91-4,2.68-4,6.91,0,5.77,3,10,3,13.87,0,.13,0,1.28-1.85,1.28C787.89,491.65,782,482.5,782,478.48Zm1.22-14c1.92,0,3.78,0,3.78-2.63,0-2.25-1.76-2.4-3.57-2.4-10.47,0-20.47,0-31.4,0-1.7,0-3-.23-3,2.4s1.48,2.63,3.32,2.62c5.15,0,10.3,0,15.45,0S778.08,464.48,783.23,464.51Z"></path></g></g><style data-made-with="vivus-instant">.OVNGaTlV_0{stroke-dasharray:2650 2652;stroke-dashoffset:2651;animation:OVNGaTlV_draw_0 8200ms linear 0ms infinite,OVNGaTlV_fade 8200ms linear 0ms infinite;}.OVNGaTlV_1{stroke-dasharray:2113 2115;stroke-dashoffset:2114;animation:OVNGaTlV_draw_1 8200ms linear 0ms infinite,OVNGaTlV_fade 8200ms linear 0ms infinite;}.OVNGaTlV_2{stroke-dasharray:1542 1544;stroke-dashoffset:1543;animation:OVNGaTlV_draw_2 8200ms linear 0ms infinite,OVNGaTlV_fade 8200ms linear 0ms infinite;}.OVNGaTlV_3{stroke-dasharray:183 185;stroke-dashoffset:184;animation:OVNGaTlV_draw_3 8200ms linear 0ms infinite,OVNGaTlV_fade 8200ms linear 0ms infinite;}.OVNGaTlV_4{stroke-dasharray:245 247;stroke-dashoffset:246;animation:OVNGaTlV_draw_4 8200ms linear 0ms infinite,OVNGaTlV_fade 8200ms linear 0ms infinite;}.OVNGaTlV_5{stroke-dasharray:364 366;stroke-dashoffset:365;animation:OVNGaTlV_draw_5 8200ms linear 0ms infinite,OVNGaTlV_fade 8200ms linear 0ms infinite;}.OVNGaTlV_6{stroke-dasharray:298 300;stroke-dashoffset:299;animation:OVNGaTlV_draw_6 8200ms linear 0ms infinite,OVNGaTlV_fade 8200ms linear 0ms infinite;}.OVNGaTlV_7{stroke-dasharray:142 144;stroke-dashoffset:143;animation:OVNGaTlV_draw_7 8200ms linear 0ms infinite,OVNGaTlV_fade 8200ms linear 0ms infinite;}.OVNGaTlV_8{stroke-dasharray:154 156;stroke-dashoffset:155;animation:OVNGaTlV_draw_8 8200ms linear 0ms infinite,OVNGaTlV_fade 8200ms linear 0ms infinite;}.OVNGaTlV_9{stroke-dasharray:463 465;stroke-dashoffset:464;animation:OVNGaTlV_draw_9 8200ms linear 0ms infinite,OVNGaTlV_fade 8200ms linear 0ms infinite;}.OVNGaTlV_10{stroke-dasharray:120 122;stroke-dashoffset:121;animation:OVNGaTlV_draw_10 8200ms linear 0ms infinite,OVNGaTlV_fade 8200ms linear 0ms infinite;}.OVNGaTlV_11{stroke-dasharray:142 144;stroke-dashoffset:143;animation:OVNGaTlV_draw_11 8200ms linear 0ms infinite,OVNGaTlV_fade 8200ms linear 0ms infinite;}.OVNGaTlV_12{stroke-dasharray:298 300;stroke-dashoffset:299;animation:OVNGaTlV_draw_12 8200ms linear 0ms infinite,OVNGaTlV_fade 8200ms linear 0ms infinite;}@keyframes OVNGaTlV_draw{100%{stroke-dashoffset:0;}}@keyframes OVNGaTlV_fade{0%{stroke-opacity:1;}95.1219512195122%{stroke-opacity:1;}100%{stroke-opacity:0;}}@keyframes OVNGaTlV_draw_0{9.75609756097561%{stroke-dashoffset: 2651}42.27642276422765%{ stroke-dashoffset: 0;}100%{ stroke-dashoffset: 0;}}@keyframes OVNGaTlV_draw_1{11.11111111111111%{stroke-dashoffset: 2114}43.63143631436315%{ stroke-dashoffset: 0;}100%{ stroke-dashoffset: 0;}}@keyframes OVNGaTlV_draw_2{12.466124661246612%{stroke-dashoffset: 1543}44.986449864498645%{ stroke-dashoffset: 0;}100%{ stroke-dashoffset: 0;}}@keyframes OVNGaTlV_draw_3{13.821138211382115%{stroke-dashoffset: 184}46.34146341463415%{ stroke-dashoffset: 0;}100%{ stroke-dashoffset: 0;}}@keyframes OVNGaTlV_draw_4{15.176151761517614%{stroke-dashoffset: 246}47.69647696476965%{ stroke-dashoffset: 0;}100%{ stroke-dashoffset: 0;}}@keyframes OVNGaTlV_draw_5{16.53116531165312%{stroke-dashoffset: 365}49.051490514905154%{ stroke-dashoffset: 0;}100%{ stroke-dashoffset: 0;}}@keyframes OVNGaTlV_draw_6{17.886178861788615%{stroke-dashoffset: 299}50.40650406504066%{ stroke-dashoffset: 0;}100%{ stroke-dashoffset: 0;}}@keyframes OVNGaTlV_draw_7{19.24119241192412%{stroke-dashoffset: 143}51.76151761517617%{ stroke-dashoffset: 0;}100%{ stroke-dashoffset: 0;}}@keyframes OVNGaTlV_draw_8{20.596205962059617%{stroke-dashoffset: 155}53.116531165311656%{ stroke-dashoffset: 0;}100%{ stroke-dashoffset: 0;}}@keyframes OVNGaTlV_draw_9{21.951219512195124%{stroke-dashoffset: 464}54.47154471544716%{ stroke-dashoffset: 0;}100%{ stroke-dashoffset: 0;}}@keyframes OVNGaTlV_draw_10{23.306233062330623%{stroke-dashoffset: 121}55.82655826558266%{ stroke-dashoffset: 0;}100%{ stroke-dashoffset: 0;}}@keyframes OVNGaTlV_draw_11{24.661246612466122%{stroke-dashoffset: 143}57.18157181571816%{ stroke-dashoffset: 0;}100%{ stroke-dashoffset: 0;}}@keyframes OVNGaTlV_draw_12{26.016260162601622%{stroke-dashoffset: 299}58.536585365853654%{ stroke-dashoffset: 0;}100%{ stroke-dashoffset: 0;}}</style></svg>